<svg xmlns="http://www.w3.org/2000/svg" width="192" height="34" baseProfile="full" preserveAspectRatio="xMinYMin meet" version="1.1" viewBox="0 0 192 34" style="overflow:visible"><style>@keyframes fadeIn{0%{opacity:0}}:root{--color-text:#EAEAEA;--color-bg:#272822;--color-link:#81C4F8;--color-primary:#CC215F;--color-gold: ;--color-silver: ;--color-bronze: ;--color-so-icon:#592635}svg{overflow:visible}.animate{animation:fadeIn .5s forwards;opacity:0}text{fill:#eaeaea;font:500 12px &apos;Segoe UI&apos;,Ubuntu,Sans-Serif;font-weight:500;font-size:17px}.ctn{x:0;y:0;fill:var(--color-bg);stroke-width:2;stroke:var(--color-primary)}:root{--color-so-icon:var(--color-primary)}.tag{fill:var(--color-link);font-weight:700}</style><rect width="192" height="34" class="ctn" rx="5" ry="5"/><style>.so-icon{transform:translateX(5px)}.so-icon path{fill:var(--color-so-icon)}</style><g class="so-icon"><svg width="20" aria-hidden="true" viewBox="0 0 25 30"><path fill="#BCBBBB" d="M21 27v-8h3v11H0V19h3v8h18z"/><path fill="#F48024" d="M17.1.2 15 1.8l7.9 10.6 2.1-1.6L17.1.2zm3.7 14.7L10.6 6.4l1.7-2 10.2 8.5-1.7 2zM7.2 12.3l12 5.6 1.1-2.4-12-5.6-1.1 2.4zm-1.8 6.8 13.56 1.96.17-2.38-13.26-2.55-.47 2.97zM19 25H5v-3h14v3z"/></svg></g><text class="animate" transform="translate(32,23)">Top 15% <tspan class="tag">rust</tspan> users</text></svg>